Patient4_TMGait_0pt7_02_left_47_GRF.mot
version=1
nRows=26
nColumns=19
inDegrees=no
endheader
time	F1x	F1y	F1z	M1x	M1y	M1z	F2x	F2y	F2z	M2x	M2y	M2z	EC1x	EC1y	EC1z	EC2x	EC2y	EC2z
53.78	6.189	18.3417	-2.0839	-4.2304	1.6278	26.0792	-26.9329	710.8468	-69.6949	270.693	75.6156	700.3559	-0.0592	0.0182	-0.0073	-0.0462	0.0165	0.9585
53.7912	4.0342	13.4356	-1.407	-3.2431	1.0225	18.872	-19.0949	718.8726	-71.9646	272.1059	75.7654	704.709	-0.0592	0.0182	-0.0073	-0.0462	0.0165	0.9585
53.8024	2.2323	9.3571	-0.83394	-2.4248	0.52123	12.8409	-12.1815	726.8793	-73.6149	273.7178	75.3865	708.6127	-0.0592	0.0182	-0.0073	-0.0462	0.0165	0.9585
53.8136	0.88691	6.3133	-0.40166	-1.82	0.15317	8.3224	-6.568	734.8033	-74.5663	275.5666	74.5138	712.1424	-0.0592	0.0182	-0.0073	-0.0462	0.0165	0.9585
53.8249	-0.04216	4.2726	-0.1058	-1.4227	-0.095878	5.2978	-2.3268	742.731	-74.8285	277.6703	73.216	715.5046	-0.0592	0.0182	-0.0073	-0.0462	0.0165	0.9585
53.8361	-0.60448	3.0749	0.071777	-1.2001	-0.24741	3.5266	0.68861	750.5855	-74.5501	279.9572	71.6421	718.7008	-0.0592	0.0182	-0.0073	-0.0462	0.0165	0.9585
53.8473	-0.91285	2.4769	0.17371	-1.0955	-0.34711	2.6556	2.7708	758.2019	-73.8847	282.3079	69.901	721.6291	-0.0592	0.0182	-0.0073	-0.0462	0.0165	0.9585
53.8585	-1.048	2.2745	0.22027	-1.0611	-0.40928	2.3464	4.2579	765.2413	-72.9895	284.5482	68.0771	723.9652	-0.0592	0.0182	-0.0073	-0.0462	0.0165	0.9585
53.8697	-1.0986	2.2381	0.25283	-1.0359	-0.47306	2.2788	5.4711	771.347	-71.9878	286.504	66.2159	725.3861	-0.0592	0.0182	-0.0073	-0.0462	0.0165	0.9585
53.8809	-1.1279	2.1464	0.27536	-0.96387	-0.53887	2.1563	6.6936	776.1372	-70.9683	288.0062	64.3339	725.5196	-0.0592	0.0182	-0.0073	-0.0462	0.0165	0.9585
53.8921	-1.157	1.7957	0.29473	-0.78819	-0.61141	1.7364	8.1019	779.2278	-70.0026	288.8954	62.451	724.0053	-0.0592	0.0182	-0.0073	-0.0462	0.0165	0.9585
53.9034	-1.2082	0.9854	0.31274	-0.45131	-0.68783	0.78218	9.8427	780.291	-69.1138	289.04	60.548	720.5341	-0.0592	0.0182	-0.0073	-0.0462	0.0165	0.9585
53.9146	-1.2438	-0.40521	0.31131	0.084041	-0.73623	-0.84843	11.9567	779.0907	-68.3199	288.3505	58.6328	714.9047	-0.0592	0.0182	-0.0073	-0.0462	0.0165	0.9585
53.9258	-1.2249	-2.4531	0.29373	0.84136	-0.73578	-3.2176	14.4592	775.5913	-67.5972	286.8152	56.68	707.0957	-0.0592	0.0182	-0.0073	-0.0462	0.0165	0.9585
53.937	-1.0646	-5.0552	0.21761	1.7852	-0.61611	-6.2228	17.329	769.9833	-66.9539	284.5042	54.702	697.3245	-0.0592	0.0182	-0.0073	-0.0462	0.0165	0.9585
53.9482	-0.66558	-7.9449	0.083934	2.8211	-0.33337	-9.5459	20.5159	762.5943	-66.4049	281.542	52.7168	685.9162	-0.0592	0.0182	-0.0073	-0.0462	0.0165	0.9585
53.9594	0.10319	-10.5367	-0.14803	3.7393	0.20213	-12.5301	23.9693	753.9128	-65.9748	278.1036	50.75	673.349	-0.0592	0.0182	-0.0073	-0.0462	0.0165	0.9585
53.9706	1.3489	-11.8661	-0.45709	4.1934	1.0165	-14.0719	27.6009	744.3596	-65.7131	274.3448	48.857	660.0406	-0.0592	0.0182	-0.0073	-0.0462	0.0165	0.9585
53.9819	3.1898	-10.4631	-0.8473	3.6532	2.1526	-12.5086	31.2921	734.3173	-65.6419	270.3987	47.081	646.4036	-0.0592	0.0182	-0.0073	-0.0462	0.0165	0.9585
53.9931	5.6397	-4.327	-1.2677	1.3968	3.5561	-5.5637	34.913	723.9553	-65.7788	266.3252	45.4757	632.6598	-0.0592	0.0182	-0.0073	-0.0462	0.0165	0.9585
54.0043	8.6032	9.0058	-1.642	-3.4669	5.0976	9.5822	38.3102	713.2359	-66.076	262.1122	44.0529	618.8667	-0.0592	0.0182	-0.0073	-0.0462	0.0165	0.9585
54.0155	11.7422	32.2231	-1.8396	-11.9049	6.4953	36.0284	41.3554	701.9259	-66.4129	257.6797	42.7703	604.9038	-0.0592	0.0182	-0.0073	-0.0462	0.0165	0.9585
54.0267	14.3808	67.7332	-1.6508	-24.7756	7.2609	76.5516	43.8886	689.5086	-66.5835	252.8531	41.5248	590.3968	-0.0592	0.0182	-0.0073	-0.0462	0.0165	0.9585
54.0379	15.4081	116.8165	-0.81167	-42.5203	6.6755	132.6631	45.8236	675.1873	-66.2981	247.357	40.129	574.7228	-0.0592	0.0182	-0.0073	-0.0462	0.0165	0.9585
54.0491	13.1389	178.4477	1.0504	-64.744	3.7203	203.2277	47.0705	657.8019	-65.2644	240.7908	38.3974	556.9377	-0.0592	0.0182	-0.0073	-0.0462	0.0165	0.9585
54.0604	6.0044	248.6653	4.2849	-89.9769	-2.5606	283.7768	47.6067	636.0149	-63.1954	232.6887	36.1273	535.9365	-0.0592	0.0182	-0.0073	-0.0462	0.0165	0.9585
